<svg clip-rule="evenodd" fill-rule="evenodd" stroke-linejoin="round" stroke-miterlimit="2" viewBox="0 0 119 50" xmlns="http://www.w3.org/2000/svg">
<g fill="#3b281d" fill-rule="nonzero">
<path d="m0 16.665-3.65-10.332-1.491 4.099c-.215.595-.447 1.204-.695 1.825-.249.621-.484 1.209-.708 1.762-.224.556-.418 1.044-.584 1.466-.165.422-.281.725-.348.907l-2.781.273h-.298l-3.875-10.779c-.182-.496-.335-.91-.459-1.242-.124-.331-.232-.612-.323-.844s-.17-.422-.236-.572c-.066-.148-.124-.289-.174-.421-.182-.414-.368-.733-.559-.956-.19-.224-.384-.389-.583-.498-.199-.107-.402-.169-.609-.186-.207-.016-.418-.024-.633-.024l-.124-.1-.05-.969.025-.074c.116.017.286.033.509.05.224.016.459.024.709.024h5.935l-.074.967-.125.102c-.481 0-.853.053-1.117.161-.265.108-.398.402-.398.882 0 .38.128.915.385 1.601.257.688.575 1.553.956 2.596l1.516 4.073c.281.662.512 1.296.695 1.9.182.605.364 1.105.546 1.502.133-.381.314-.865.547-1.453.231-.587.479-1.237.745-1.949l1.514-4.073c.547-1.441.82-2.574.82-3.403 0-.662-.149-1.133-.446-1.416-.299-.281-.887-.421-1.764-.421l-.124-.1-.05-.969.024-.074c.117.05.303.074.56.074h6.594l-.074.967-.125.102c-.481 0-.853.053-1.118.161-.264.108-.397.402-.397.882 0 .38.091.915.273 1.601.182.688.455 1.553.82 2.596l1.416 4.073c.231.679.446 1.309.645 1.888.198.579.398 1.067.596 1.465.116-.381.273-.861.472-1.441.199-.579.422-1.217.67-1.912l1.416-4.073c.365-1.027.654-1.888.87-2.583.214-.696.323-1.234.323-1.614 0-.48-.133-.774-.398-.882s-.637-.161-1.118-.161l-.124-.1-.05-.969.05-.074c.115.05.298.074.547.074h4.768c.249 0 .488-.012.72-.037.232-.024.406-.037.522-.037l.05.074-.075.967-.125.102c-.214 0-.421.008-.62.024-.199.017-.393.079-.584.186-.19.109-.381.274-.571.498-.19.223-.385.542-.584.956-.033.083-.066.166-.099.248-.033.083-.086.211-.162.384-.074.174-.17.419-.285.734-.116.314-.273.741-.472 1.278-.199.539-.447 1.214-.745 2.025-.297.811-.654 1.796-1.068 2.956-.198.579-.409 1.179-.633 1.799-.223.621-.434 1.209-.634 1.764-.198.555-.372 1.048-.521 1.478s-.248.737-.298.919l-2.782.273z" transform="translate(18.18 .0129)"/>
<path d="m0-16.342-.074.943-.1.1c-.264 0-.513.013-.745.037-.231.024-.431.096-.596.211-.149.116-.286.266-.41.447-.124.183-.185.505-.185.969-.018.231-.03.447-.038.646s-.017.43-.025.695c-.009.265-.013.588-.013.969v6.495c0 .372.004.682.013.93.008.249.017.46.025.634s.02.361.038.559c.032.464.107.786.222.969.117.182.241.331.373.447.15.115.344.185.584.211.24.024.493.037.757.037l.1.099.074.944-.05.025h-7.028l-.05-.025.075-.944.124-.099c.265 0 .517-.013.757-.037.24-.026.427-.096.56-.211.132-.116.252-.265.359-.447.107-.183.194-.505.261-.969 0-.115.004-.252.013-.41.008-.158.016-.352.025-.583.008-.233.012-.514.012-.845v-6.756c0-.396-.004-.736-.012-1.018-.009-.281-.017-.521-.025-.72-.009-.199-.021-.398-.038-.596-.033-.431-.107-.745-.223-.944s-.24-.356-.372-.472c-.15-.115-.34-.187-.572-.211s-.48-.037-.745-.037l-.124-.1-.075-.943.05-.025h7.028z" transform="translate(36.559 16.4544)"/>
<path d="m0-10.951c-.033-.281-.096-.559-.187-.832-.09-.273-.227-.477-.409-.609-.133-.082-.299-.14-.497-.174-.198-.032-.471-.05-.819-.05l-.124-.098-.075-.932.049-.1c.15.059.352.087.609.087h5.787c.257 0 .468-.028.633-.087l.05.1-.075.932-.099.098c-.414 0-.716.021-.906.062-.191.042-.344.104-.459.187-.349.231-.547.704-.597 1.415-.017.166-.029.336-.037.51-.009.174-.013.397-.013.67v7.501c0 .406.004.745.013 1.018.008.273.016.513.024.72.009.207.029.451.063.732.016.332.207.497.571.497h2.31c.546 0 .981-.012 1.303-.037.323-.024.575-.09.758-.198.182-.108.323-.262.422-.46.1-.198.19-.472.273-.819l.075-.1h1.142l-.446 3.414-.199.249c-.133-.024-.34-.037-.621-.037h-9.984c-.265 0-.464.029-.597.087l-.049-.1.075-.949.124-.099c.629 0 1.059-.091 1.291-.274.133-.116.261-.298.385-.547.125-.248.203-.538.236-.869.017-.166.028-.393.037-.683s.017-.592.025-.907.012-.609.012-.882v-4.634c0-.911-.004-1.71-.012-2.398-.008-.687-.029-1.155-.062-1.404" transform="translate(40.6566 13.746)"/>
<path d="m0 12.443c.993 0 1.87-.162 2.632-.484.762-.324 1.403-.766 1.925-1.329s.919-1.221 1.192-1.975c.273-.753.41-1.561.41-2.421 0-.895-.14-1.718-.423-2.472-.281-.753-.691-1.403-1.228-1.949-.539-.547-1.197-.973-1.975-1.279-.778-.307-1.664-.46-2.658-.46h-2.186c-.033.48-.053.882-.061 1.205-.009.322-.022.649-.037.98-.017.332-.026.692-.026 1.081v4.557c0 .994.004 1.769.013 2.322.008.556.028.974.063 1.255.048.431.157.699.322.807s.464.162.894.162zm-5.241-11.648c-.033-.415-.108-.729-.223-.945-.116-.215-.249-.372-.397-.471-.15-.132-.303-.207-.46-.224-.158-.016-.444-.025-.857-.025l-.124-.099-.075-.943.05-.1c.116 0 .281.017.497.05.215.033.447.05.695.05h7.103c1.292 0 2.447.218 3.465.657 1.018.438 1.875 1.029 2.57 1.773.696.743 1.229 1.612 1.602 2.604.373.991.559 2.042.559 3.149 0 1.091-.178 2.129-.534 3.112-.356.984-.882 1.852-1.577 2.604-.696.752-1.565 1.352-2.608 1.798s-2.252.67-3.626.67h-8.146l-.05-.026.075-.943.124-.1c.199 0 .43-.012.696-.037.264-.025.471-.087.621-.186.132-.1.256-.257.372-.472s.199-.538.248-.969c0-.115.004-.252.012-.41.009-.157.017-.351.026-.583.008-.232.012-.514.012-.845v-7.128c0-.38-.004-.752-.012-1.117-.009-.364-.022-.646-.038-.844" transform="translate(59.0599 2.0249)"/>
<path d="m0-10.951c-.033-.281-.096-.559-.187-.832-.09-.273-.227-.477-.409-.609-.133-.082-.299-.14-.497-.174-.198-.032-.471-.05-.819-.05l-.124-.098-.075-.932.049-.1c.15.059.352.087.609.087h5.787c.257 0 .468-.028.633-.087l.05.1-.075.932-.099.098c-.414 0-.716.021-.906.062-.191.042-.344.104-.459.187-.349.231-.547.704-.597 1.415-.017.166-.029.336-.037.51-.009.174-.013.397-.013.67v7.501c0 .406.004.745.013 1.018.008.273.016.513.024.72.009.207.029.451.063.732.016.332.207.497.571.497h2.31c.546 0 .981-.012 1.303-.037.323-.024.575-.09.758-.198.182-.108.323-.262.422-.46.1-.198.19-.472.273-.819l.075-.1h1.142l-.446 3.414-.199.249c-.133-.024-.34-.037-.621-.037h-9.984c-.265 0-.464.029-.597.087l-.049-.1.075-.949.124-.099c.629 0 1.059-.091 1.291-.274.133-.116.261-.298.385-.547.125-.248.203-.538.236-.869.017-.166.028-.393.037-.683s.017-.592.025-.907.012-.609.012-.882v-4.634c0-.911-.004-1.71-.012-2.398-.008-.687-.029-1.155-.062-1.404" transform="translate(72.2972 13.746)"/>
<path d="m0-16.342-.074.943-.1.1c-.264 0-.513.013-.745.037-.231.024-.431.096-.596.211-.149.116-.286.266-.41.447-.124.183-.185.505-.185.969-.018.231-.03.447-.038.646s-.017.43-.025.695c-.009.265-.013.588-.013.969v6.495c0 .372.004.682.013.93.008.249.017.46.025.634s.02.361.038.559c.032.464.107.786.222.969.117.182.241.331.373.447.15.115.344.185.584.211.24.024.493.037.757.037l.1.099.074.944-.05.025h-7.028l-.05-.025.075-.944.124-.099c.265 0 .517-.013.757-.037.24-.026.427-.096.56-.211.132-.116.252-.265.359-.447.107-.183.194-.505.261-.969 0-.115.004-.252.013-.41.008-.158.016-.352.025-.583.008-.233.012-.514.012-.845v-6.756c0-.396-.004-.736-.012-1.018-.009-.281-.017-.521-.025-.72-.009-.199-.021-.398-.038-.596-.033-.431-.107-.745-.223-.944s-.24-.356-.372-.472c-.15-.115-.34-.187-.572-.211s-.48-.037-.745-.037l-.124-.1-.075-.943.05-.025h7.028z" transform="translate(90.4517 16.4544)"/>
<path d="m0-10.928c-.033-.48-.111-.812-.235-.993-.124-.183-.253-.323-.385-.423-.15-.132-.34-.207-.571-.224-.233-.015-.481-.024-.746-.024l-.124-.1-.075-.943.05-.025h11.524l.149.223-.124 3.204h-1.117l-.1-.101c-.033-.321-.079-.573-.137-.758-.058-.186-.211-.32-.459-.405-.249-.084-.633-.126-1.155-.126h-3.564l-.049.958c0 .164-.005.316-.013.455-.009.139-.016.3-.025.479-.008.181-.017.406-.025.676-.008.271-.012 1.013-.012 2.225h2.173c.306 0 .576-.021.807-.064.232-.042.398-.114.497-.217.149-.152.224-.398.224-.738l.124-.148h.919l.099.024c-.017.216-.034.402-.049.56-.017.157-.03.309-.038.459-.008.149-.017.297-.025.447-.009.148-.013.322-.013.521 0 .398.013.775.038 1.13.025.357.053.733.087 1.13l-.099.026h-.945l-.098-.1c0-.431-.083-.753-.249-.969-.083-.083-.232-.149-.447-.198-.215-.05-.476-.087-.783-.112-.305-.025-.654-.037-1.043-.037h-1.179v2.993c0 .372.004.682.012.93.008.249.017.46.025.634.009.174.02.36.038.559.032.488.119.824.261 1.009.139.184.276.328.409.428.149.135.368.202.658.202h.832l.124.102.075.966-.05.025h-7.277l-.05-.025.075-.944.124-.099c.265 0 .513-.013.746-.037.231-.026.421-.096.571-.211.132-.116.261-.265.385-.448.124-.182.202-.504.235-.968 0-.115.004-.252.013-.41.008-.158.016-.352.025-.583.008-.233.012-.514.012-.845v-6.756c0-.397-.004-.736-.012-1.018-.009-.281-.017-.521-.025-.72-.009-.199-.013-.398-.013-.596" transform="translate(94.5737 13.7475)"/>
<path d="m-7.104-16.393h11.525l.148.224-.124 3.204h-1.117l-.099-.102c-.034-.32-.08-.572-.137-.758-.059-.185-.211-.32-.459-.405-.249-.084-.634-.126-1.155-.126h-3.589l-.025.221c-.017.23-.029.443-.038.639-.008.197-.016.426-.024.689-.009.262-.013.581-.013.958v2.286h2.161c.315 0 .584-.02.807-.063.223-.042.386-.115.484-.217.166-.169.249-.407.249-.713l.124-.15h.919l.1.026c-.034.381-.063.712-.087.993-.025.282-.038.605-.038.969 0 .397.013.766.038 1.105.024.34.053.708.087 1.106l-.1.024h-.944l-.099-.097c0-.424-.075-.737-.223-.94-.133-.186-.51-.279-1.13-.279h-2.348v2.002c0 .471.004.862.013 1.172.008.309.016.573.024.793.009.219.021.427.038.623.016.195.032.422.049.683.017.31.183.464.497.464h3.341c.537 0 .947-.063 1.229-.191s.485-.312.609-.55.235-.562.335-.97l.099-.102h1.167l-.471 3.628-.199.247h-11.624l-.049-.026.075-.943.124-.1c.265 0 .513-.012.745-.037.231-.025.422-.096.571-.211.132-.116.261-.264.385-.447s.202-.505.235-.969c0-.115.004-.252.013-.41.009-.157.017-.352.026-.583.007-.232.011-.514.011-.845v-7.773c0-.281-.004-.522-.011-.721-.009-.198-.022-.397-.039-.596-.033-.447-.111-.77-.235-.968-.124-.199-.253-.348-.385-.448-.149-.131-.34-.207-.571-.223-.232-.016-.48-.025-.745-.025l-.124-.099-.075-.944z" transform="translate(112.8287 16.48)"/>
<path d="m0-8.966c-.05-.364-.208-.674-.473-.932-.264-.255-.591-.459-.98-.608-.39-.148-.819-.256-1.292-.322-.472-.067-.94-.1-1.403-.1-1.474 0-2.617.372-3.427 1.117-.63.564-1.085 1.313-1.366 2.248-.282.936-.422 1.95-.422 3.042 0 1.043.144 1.962.434 2.757.289.795.687 1.462 1.193 2 .505.538 1.104.944 1.799 1.217.696.272 1.458.409 2.286.409.712 0 1.536-.078 2.471-.235.935-.157 1.817-.46 2.645-.907l.298.546-.596 1.093c-.861.53-1.727.919-2.596 1.167-.869.249-1.759.373-2.67.373-1.241 0-2.367-.199-3.377-.594-1.01-.398-1.876-.964-2.595-1.7-.721-.736-1.28-1.612-1.677-2.629-.398-1.016-.596-2.144-.596-3.384 0-1.158.178-2.253.534-3.287.356-1.033.885-1.929 1.589-2.69s1.574-1.364 2.609-1.81c1.034-.447 2.239-.67 3.613-.67h1.167c.447 0 .919.038 1.416.113s.997.184 1.503.327c.505.143.989.323 1.452.54l.075.228-.323 2.791h-1.217z" transform="translate(25.9662 33.6409)"/>
<path d="m-7.104-16.392h11.525l.148.224-.124 3.204h-1.117l-.099-.102c-.034-.32-.08-.572-.137-.758-.059-.185-.211-.32-.459-.405-.249-.084-.634-.126-1.155-.126h-3.589l-.025.221c-.017.23-.029.443-.038.639-.008.197-.016.426-.024.689-.009.262-.013.581-.013.958v2.286h2.161c.315 0 .584-.021.807-.063.223-.043.386-.115.484-.217.166-.17.249-.407.249-.713l.124-.15h.919l.1.025c-.034.382-.063.713-.087.994-.025.281-.038.605-.038.969 0 .397.013.765.038 1.105.024.339.053.708.087 1.105l-.1.025h-.944l-.099-.098c0-.423-.075-.736-.223-.939-.133-.186-.51-.279-1.13-.279h-2.348v2.002c0 .471.004.862.013 1.172.008.308.016.573.024.793.009.219.021.427.038.622.016.196.032.423.049.684.017.309.183.463.497.463h3.341c.537 0 .947-.063 1.229-.19.282-.128.485-.312.609-.55s.235-.562.335-.971l.099-.101h1.167l-.471 3.628-.199.246h-11.624l-.049-.025.075-.944.124-.099c.265 0 .513-.012.745-.037.231-.025.422-.096.571-.212.132-.115.261-.264.385-.446.124-.183.202-.505.235-.969 0-.116.004-.253.013-.41s.017-.352.026-.584c.007-.231.011-.513.011-.844v-7.774c0-.28-.004-.521-.011-.72-.009-.198-.022-.397-.039-.596-.033-.447-.111-.77-.235-.968-.124-.199-.253-.348-.385-.448-.149-.131-.34-.207-.571-.223-.232-.016-.48-.025-.745-.025l-.124-.099-.075-.944z" transform="translate(36.7699 37.3413)"/>
<path d="m0-16.37-.049.952-.125.098c-.248 0-.492.012-.732.037s-.435.096-.584.211c-.132.116-.269.264-.409.447-.141.182-.237.505-.287.968-.016.231-.028.447-.037.645-.008.199-.016.431-.024.696-.009.264-.013.587-.013.967v5.337c0 .927.004 1.689.013 2.285.008.595.016 1.104.024 1.526.009.422.026.799.05 1.13.026.331.054.694.087 1.092l-.198.071h-3.056l-.248-.318-7.674-11.628c.033.297.053.773.062 1.427.009.655.012 1.412.012 2.273v2.62c0 .323.004.658.013 1.006.008.347.016.683.025 1.006.007.323.02.584.037.782.033.414.124.729.273.944.15.215.307.372.472.472.133.133.306.207.521.224.215.016.489.024.821.024l.124.1.074.943-.05.025h-6.83l-.05-.025.075-.943.124-.1c.298 0 .55-.012.758-.037.206-.025.393-.095.559-.211.115-.082.256-.219.422-.409.165-.191.273-.526.323-1.005.016-.116.028-.252.037-.409.008-.158.013-.352.013-.584v-8.612c0-.28-.005-.52-.013-.718-.009-.2-.021-.398-.037-.596-.033-.348-.129-.646-.286-.894s-.311-.422-.459-.521c-.15-.132-.336-.206-.559-.224-.223-.015-.476-.024-.758-.024l-.124-.101-.075-.949.05-.092c.116 0 .286.008.51.024.223.014.45.03.682.045s.46.031.683.045c.224.016.394.023.51.023h2.111c.132 0 .298-.007.496-.023.199-.014.373-.037.522-.067l.124.075c.049.233.174.552.373.959.198.407.442.864.732 1.369.29.507.6 1.038.932 1.595.331.556.662 1.108.993 1.656.596.996 1.126 1.864 1.59 2.603.463.738.877 1.382 1.241 1.93.364.547.679 1.008.944 1.382.265.373.489.685.67.934 0-.433.004-.857.013-1.273s.013-.84.013-1.273v-4.868c0-.399-.004-.74-.013-1.024-.009-.283-.017-.524-.024-.724-.009-.199-.022-.399-.038-.599-.034-.282-.104-.545-.211-.786-.108-.241-.278-.453-.509-.637-.15-.132-.344-.2-.584-.2h-.757l-.1-.101-.074-.973.05-.092c.115 0 .281.008.496.024.215.014.435.03.658.045.224.015.444.031.658.045.215.016.381.023.497.023h2.658c.215 0 .438-.009.671-.027.231-.018.455-.037.67-.055.214-.018.38-.036.497-.055z" transform="translate(61.6048 37.3242)"/>
<path d="m0 16.603h-7.748l-.05-.025.074-.966.124-.102h.882c.339 0 .584-.066.733-.199.132-.115.264-.265.397-.447.133-.183.224-.506.274-.97.016-.115.028-.252.037-.409.007-.158.016-.353.025-.585.008-.233.012-.514.012-.845v-5.793c0-.911-.008-1.723-.025-2.435-.016-.713-.033-1.244-.049-1.591h-1.838c-.414 0-.745.012-.994.037-.249.024-.434.054-.559.087-.124.033-.211.074-.261.124-.181.083-.331.216-.446.398-.116.182-.191.398-.224.647l-.099.098h-1.069l.175-3.329.099-.223.149-.075c.132.059.422.114.869.163.448.048.936.073 1.465.073h8.296c.529 0 1.019-.025 1.465-.073.447-.049.737-.104.869-.163l.149.075.1.223.198 3.329h-1.093l-.099-.1c-.033-.253-.108-.473-.223-.658-.116-.186-.265-.321-.447-.406-.05-.067-.137-.122-.261-.165-.124-.042-.31-.062-.558-.062h-2.807c-.017.396-.029.926-.037 1.588-.009.661-.013 1.463-.013 2.406v5.519c0 .373.004.683.013.931.008.248.016.459.024.633s.021.359.037.558c.034.48.124.811.274.994.148.181.289.322.422.422.066.066.162.116.286.149s.261.058.409.074c.149.017.302.025.46.025h.435l.124.099.074.944z" transform="translate(73.4759 20.7135)"/>
<path d="m-7.104-16.392h11.525l.148.224-.124 3.204h-1.117l-.099-.102c-.034-.32-.08-.572-.137-.758-.059-.185-.211-.32-.459-.405-.249-.084-.634-.126-1.155-.126h-3.589l-.025.221c-.017.23-.029.443-.038.639-.008.197-.016.426-.024.689-.009.262-.013.581-.013.958v2.286h2.161c.315 0 .584-.021.807-.063.223-.043.386-.115.484-.217.166-.17.249-.407.249-.713l.124-.15h.919l.1.025c-.034.382-.063.713-.087.994-.025.281-.038.605-.038.969 0 .397.013.765.038 1.105.024.339.053.708.087 1.105l-.1.025h-.944l-.099-.098c0-.423-.075-.736-.223-.939-.133-.186-.51-.279-1.13-.279h-2.348v2.002c0 .471.004.862.013 1.172.008.308.016.573.024.793.009.219.021.427.038.622.016.196.032.423.049.684.017.309.183.463.497.463h3.341c.537 0 .947-.063 1.229-.19.282-.128.485-.312.609-.55s.235-.562.335-.971l.099-.101h1.167l-.471 3.628-.199.246h-11.624l-.049-.025.075-.944.124-.099c.265 0 .513-.012.745-.037.231-.025.422-.096.571-.212.132-.115.261-.264.385-.446.124-.183.202-.505.235-.969 0-.116.004-.253.013-.41s.017-.352.026-.584c.007-.231.011-.513.011-.844v-7.774c0-.28-.004-.521-.011-.72-.009-.198-.022-.397-.039-.596-.033-.447-.111-.77-.235-.968-.124-.199-.253-.348-.385-.448-.149-.131-.34-.207-.571-.223-.232-.016-.48-.025-.745-.025l-.124-.099-.075-.944z" transform="translate(85.0248 37.3413)"/>
<path d="m0-.583c1.209 0 2.157-.288 2.844-.865s1.031-1.377 1.031-2.4c0-.922-.307-1.594-.919-2.015-.613-.42-1.59-.631-2.931-.631h-1.168c-.048.66-.083 1.171-.098 1.534-.017.362-.026.709-.026 1.038v2.424c0 .346.041.585.124.717s.241.198.473.198zm.869 8.531c-.132-.058-.318-.087-.558-.087h-5.936c-.24 0-.418.029-.534.087l-.05-.099.075-.955.124-.101c.629 0 1.06-.074 1.291-.224.348-.231.563-.711.646-1.44.016-.28.029-.715.038-1.301.008-.587.012-1.179.012-1.773v-5.456c0-.578-.008-1.037-.025-1.376-.016-.339-.042-.674-.074-1.004-.066-.447-.137-.77-.212-.968-.074-.198-.186-.355-.335-.472-.133-.082-.294-.139-.484-.173-.191-.033-.476-.049-.857-.049l-.124-.101-.075-.949.05-.1c.43.075.857.113 1.279.113h5.477c1.969 0 3.46.367 4.469 1.102 1.01.734 1.516 1.829 1.516 3.281 0 1.041-.303 1.987-.906 2.837-.606.851-1.503 1.589-2.696 2.217.563.846 1.04 1.534 1.429 2.065.389.532.724.955 1.006 1.27.38.448.736.821 1.067 1.12s.659.547.982.746c.322.199.658.349 1.006.448.347.1.736.166 1.167.2l.149.099.049.944-.049.161h-2.658c-.878 0-1.66-.242-2.347-.727s-1.42-1.31-2.198-2.477c-.183-.264-.377-.56-.583-.888-.208-.329-.414-.653-.621-.975-.207-.32-.401-.628-.584-.923-.183-.296-.331-.551-.447-.765h-1.615v1.453c0 .405.004.757.013 1.056.008.298.021.554.037.769.017.216.033.414.05.596.066.762.248 1.242.547 1.44.115.083.265.142.446.174.183.034.488.05.919.05l.1.101.074.955z" transform="translate(98.3607 29.4552)"/>
<path d="m0 4.56c.292 0 .553-.062.782-.184.23-.122.422-.286.577-.491.156-.206.275-.447.358-.724.084-.278.125-.574.125-.89 0-.322-.043-.621-.129-.899-.087-.277-.212-.517-.376-.719-.164-.203-.362-.363-.595-.479-.232-.116-.495-.175-.787-.175-.286 0-.539.058-.76.17-.22.114-.405.272-.553.475-.15.202-.263.442-.34.72-.078.277-.116.576-.116.898 0 .358.043.678.133.961s.215.524.376.72c.16.196.352.348.572.456.22.107.465.161.733.161m.009-5.302c.459 0 .867.08 1.225.241.358.162.659.38.903.658.245.277.43.597.559.961.128.363.192.745.192 1.144 0 .394-.063.774-.188 1.14-.125.367-.311.69-.558.971-.247.28-.555.504-.921.674-.367.17-.791.255-1.275.255-.465 0-.873-.081-1.224-.241-.352-.161-.646-.377-.881-.648-.236-.272-.413-.587-.532-.949-.12-.36-.179-.74-.179-1.139 0-.423.065-.822.197-1.194.131-.373.319-.697.564-.974.244-.278.545-.496.902-.658.357-.161.763-.241 1.216-.241" transform="translate(26.8783 43.7917)"/>
<path d="m0-3.934c-.013-.173-.041-.292-.085-.357-.045-.066-.092-.117-.139-.153-.053-.048-.122-.074-.206-.08-.083-.006-.173-.01-.268-.01l-.044-.035-.028-.34.019-.008h4.148l.054.08-.045 1.153h-.402l-.036-.036c-.012-.115-.029-.206-.049-.274-.022-.066-.076-.115-.165-.145-.09-.03-.229-.045-.416-.045h-1.283l-.018.345c0 .058-.002.113-.005.164-.003.05-.006.107-.009.172-.002.065-.005.146-.008.244-.003.096-.005.364-.005.801h.782c.11 0 .207-.008.291-.024.083-.015.143-.041.179-.078.053-.055.08-.144.08-.266l.045-.053h.331l.036.008c-.007.079-.013.145-.019.202-.006.056-.01.112-.013.166l-.009.161c-.003.054-.004.116-.004.187 0 .143.004.279.013.407s.019.264.032.407l-.036.009h-.34l-.036-.036c0-.155-.029-.271-.089-.349-.03-.029-.084-.053-.161-.071s-.172-.032-.281-.041c-.111-.008-.237-.013-.376-.013h-.425v1.078c0 .134.002.245.005.335.003.089.006.165.008.227.003.063.007.13.014.202.012.175.043.296.094.363.051.066.099.118.147.154.054.049.133.073.237.073h.299l.045.037.027.347-.018.009h-2.619l-.019-.009.028-.34.044-.035c.095 0 .185-.005.268-.013.084-.009.153-.035.206-.077.047-.041.094-.094.139-.161.044-.065.072-.181.085-.348 0-.041.001-.091.004-.148s.006-.126.009-.21c.003-.083.005-.184.005-.304v-2.431c0-.144-.002-.266-.005-.367-.003-.102-.006-.188-.009-.259-.003-.072-.004-.144-.004-.215" transform="translate(33.0218 48.0386)"/>
<path d="m0 6-1.395-3.881c-.065-.179-.121-.327-.166-.447-.043-.119-.083-.22-.116-.304-.032-.083-.06-.152-.085-.205-.023-.054-.044-.104-.062-.152-.066-.15-.133-.264-.201-.345-.069-.08-.139-.14-.21-.179-.072-.038-.145-.06-.219-.066-.075-.006-.15-.01-.229-.01l-.044-.035-.018-.349.009-.027c.042.006.103.013.183.019.081.005.166.008.255.008h2.137l-.026.348-.045.036c-.173 0-.307.02-.403.059-.095.039-.142.144-.142.317 0 .137.046.329.137.577.093.247.207.559.345.934l.545 1.467c.102.238.186.465.251.683s.131.399.196.541c.048-.136.114-.311.198-.522.083-.212.172-.446.267-.702l.546-1.467c.137-.375.252-.687.344-.934.093-.248.138-.44.138-.577 0-.173-.047-.278-.142-.317-.096-.039-.23-.059-.402-.059l-.045-.035-.018-.349.018-.027c.042.019.107.027.196.027h1.717c.09 0 .175-.005.259-.013.083-.009.146-.014.188-.014l.018.027-.027.348-.045.036c-.077 0-.152.004-.223.01-.072.006-.142.028-.21.066-.069.039-.137.099-.206.179-.069.081-.139.195-.21.345-.012.03-.026.059-.04.089-.015.03-.037.076-.063.138-.027.063-.064.152-.111.264-.048.113-.111.268-.189.461-.077.193-.174.436-.29.728s-.255.648-.416 1.065c-.084.208-.17.425-.26.647-.088.224-.172.436-.25.635-.077.2-.146.378-.205.532-.06.156-.101.266-.126.331l-1.001.099z" transform="translate(44.4652 43.0939)"/>
<path d="m0-5.883-.027.34-.035.035c-.096 0-.185.005-.269.014-.083.008-.155.034-.215.076-.054.042-.102.096-.147.161-.044.065-.067.182-.067.349-.007.083-.011.161-.013.232-.003.071-.006.155-.009.25-.003.096-.005.212-.005.349v2.339c0 .133.002.245.005.334s.006.166.009.228c.002.063.006.13.013.201.012.167.038.283.08.349s.086.12.134.161c.054.042.124.067.211.076.086.009.177.014.273.014l.035.035.027.34-.018.009h-2.53l-.018-.009.027-.34.044-.035c.096 0 .186-.005.273-.014.086-.009.154-.034.201-.076.047-.041.091-.095.129-.161.039-.066.071-.182.095-.349 0-.041.001-.091.004-.147.003-.057.006-.126.009-.21.003-.083.005-.185.005-.304v-2.432c0-.143-.002-.265-.005-.367-.003-.101-.006-.187-.009-.259s-.008-.143-.014-.214c-.011-.156-.038-.269-.08-.34-.042-.072-.087-.128-.134-.17-.053-.042-.122-.068-.206-.076-.083-.009-.172-.014-.268-.014l-.044-.035-.027-.34.018-.009h2.53z" transform="translate(53.0043 49.013)"/>
<path d="m0-.211c.436 0 .776-.104 1.023-.312.248-.207.372-.495.372-.863 0-.332-.111-.574-.331-.725-.22-.152-.572-.228-1.055-.228h-.42c-.018.238-.03.422-.036.553s-.009.255-.009.374v.872c0 .125.015.211.045.258.029.048.086.071.17.071zm.313 3.071c-.047-.02-.115-.031-.201-.031h-2.137c-.086 0-.151.011-.192.031l-.018-.035.027-.344.044-.036c.227 0 .382-.027.466-.081.125-.083.202-.256.232-.518.006-.101.01-.257.013-.469.003-.211.005-.424.005-.638v-1.965c0-.208-.003-.373-.009-.495s-.016-.242-.027-.361c-.024-.161-.049-.276-.077-.349-.026-.071-.066-.128-.12-.169-.048-.03-.106-.05-.174-.062-.069-.013-.171-.019-.309-.019l-.044-.036-.027-.342.018-.035c.154.027.308.04.46.04h1.972c.709 0 1.245.132 1.609.397.364.264.545.659.545 1.181 0 .375-.108.715-.326 1.022-.218.305-.541.572-.97.798.202.304.374.552.514.744.141.19.261.343.362.456.137.162.266.296.385.403.119.108.236.197.353.27.116.071.237.125.362.161.125.035.265.059.42.071l.053.036.019.34-.019.058h-.956c-.316 0-.597-.087-.844-.262-.248-.175-.512-.472-.792-.892-.066-.094-.136-.201-.21-.319-.074-.119-.15-.235-.224-.35-.074-.117-.144-.227-.21-.334-.065-.106-.119-.198-.161-.275h-.581v.524c0 .145.002.272.005.379.003.108.007.2.013.277.005.078.012.149.018.215.024.274.089.447.196.518.042.03.096.051.162.063.065.012.175.018.331.018l.035.036.027.344z" transform="translate(57.7435 46.1838)"/>
<path d="m0 5.4c-.299.09-.611.165-.939.229-.328.062-.67.093-1.028.093-.519 0-.971-.079-1.355-.237s-.703-.374-.956-.648c-.254-.274-.443-.593-.569-.957-.125-.364-.187-.748-.187-1.153 0-.43.067-.829.201-1.198.134-.37.332-.691.595-.966.262-.274.587-.49.974-.648.388-.158.837-.237 1.35-.237.113 0 .246.006.398.018.153.012.312.032.479.062.167.031.338.071.514.121.175.05.344.115.504.192l.019.081-.152.975h-.403l-.036-.028c-.029-.202-.15-.368-.361-.496-.212-.128-.547-.192-1.006-.192-.286 0-.538.025-.756.076s-.419.147-.603.291c-.131.101-.239.222-.323.361-.083.141-.148.294-.196.461s-.08.343-.099.528c-.017.184-.026.37-.026.554 0 .364.049.689.148.975.098.286.233.527.406.723.173.198.377.348.613.453.235.104.49.156.764.156.084 0 .175-.005.273-.014s.195-.022.29-.04c.096-.018.181-.039.255-.063s.127-.048.156-.073c.036-.017.057-.042.063-.071.006-.03.01-.069.01-.117v-.207c0-.096-.007-.171-.019-.225-.012-.156-.043-.274-.094-.355-.05-.081-.093-.134-.13-.158-.053-.048-.133-.072-.241-.072h-.304l-.044-.037-.027-.384.018-.008h1.6c.041 0 .099-.001.17-.004.072-.003.146-.006.224-.01.077-.003.151-.006.224-.009.071-.003.127-.004.169-.004l.018.035-.018.394-.044.036c-.173 0-.294.049-.363.148-.068.098-.108.243-.121.433-.012.119-.019.246-.022.38s-.004.234-.004.3c0 .089.001.186.004.29s.01.172.022.201z" transform="translate(68.2767 43.3716)"/>
<path d="m0-5.883-.027.34-.035.035c-.096 0-.185.005-.269.014-.083.008-.155.034-.215.076-.054.042-.102.096-.147.161-.044.065-.067.182-.067.349-.007.083-.011.161-.013.232-.003.071-.006.155-.009.25-.003.096-.005.212-.005.349v2.339c0 .133.002.245.005.334s.006.166.009.228c.002.063.006.13.013.201.012.167.038.283.08.349s.086.12.134.161c.054.042.124.067.211.076.086.009.177.014.273.014l.035.035.027.34-.018.009h-2.53l-.018-.009.027-.34.044-.035c.096 0 .186-.005.273-.014.086-.009.154-.034.201-.076.047-.041.091-.095.129-.161.039-.066.071-.182.095-.349 0-.041.001-.091.004-.147.003-.057.006-.126.009-.21.003-.083.005-.185.005-.304v-2.432c0-.143-.002-.265-.005-.367-.003-.101-.006-.187-.009-.259s-.008-.143-.014-.214c-.011-.156-.038-.269-.08-.34-.042-.072-.087-.128-.134-.17-.053-.042-.122-.068-.206-.076-.083-.009-.172-.014-.268-.014l-.044-.035-.027-.34.018-.009h2.53z" transform="translate(73.8197 49.013)"/>
<path d="m0-5.893-.018.342-.044.035c-.09 0-.178.005-.264.014-.087.008-.156.034-.21.076-.048.042-.097.095-.148.161-.05.065-.085.182-.103.349-.006.083-.01.16-.013.232-.003.071-.006.154-.009.25-.003.095-.004.211-.004.349v1.921c0 .333.001.607.004.822s.006.397.009.55c.003.151.009.287.018.406s.019.25.031.393l-.071.026h-1.1l-.09-.114-2.762-4.187c.011.107.019.279.022.515.003.235.005.507.005.817v.943c0 .117.001.238.004.363s.006.246.009.362.007.21.013.281c.012.15.045.263.099.34.054.078.11.134.17.17.047.048.11.074.187.08.078.007.176.01.295.01l.045.035.027.34-.018.009h-2.459l-.018-.009.027-.34.045-.035c.107 0 .198-.005.272-.014.075-.009.142-.034.201-.076.042-.029.093-.079.153-.147.059-.069.098-.189.116-.362.006-.042.011-.091.014-.147.003-.057.003-.127.003-.21v-3.101c0-.1 0-.187-.003-.259-.003-.071-.008-.142-.014-.214-.012-.125-.046-.232-.103-.322-.056-.089-.112-.151-.166-.187-.053-.048-.12-.074-.201-.08-.08-.006-.171-.01-.272-.01l-.045-.035-.027-.342.018-.033c.042 0 .104.003.184.008s.162.01.246.016c.083.006.165.011.245.017.081.005.141.008.183.008h.76c.048 0 .108-.003.179-.008.072-.006.135-.014.188-.025l.045.028c.018.083.063.198.134.344.071.147.159.311.264.494.104.182.216.374.335.574s.238.398.358.596c.214.359.405.67.571.937.167.266.317.497.448.694.131.198.244.364.339.498.096.135.176.247.242.336 0-.155.002-.308.005-.458s.004-.302.004-.459v-1.752c0-.143-.001-.266-.004-.368s-.006-.189-.009-.26c-.003-.073-.008-.145-.014-.216-.012-.102-.037-.197-.076-.284-.039-.086-.1-.163-.183-.229-.053-.048-.124-.071-.211-.071h-.272l-.035-.037-.028-.35.018-.033c.042 0 .102.003.179.008.078.005.157.01.237.016s.159.011.237.017c.077.005.137.008.179.008h.956c.078 0 .158-.003.242-.01.083-.007.163-.013.242-.02.077-.007.136-.013.178-.019z" transform="translate(82.6976 49.0162)"/>
<path d="m0-5.883-.027.34-.035.035c-.096 0-.185.005-.269.014-.083.008-.155.034-.215.076-.054.042-.102.096-.147.161-.044.065-.067.182-.067.349-.007.083-.011.161-.013.232-.003.071-.006.155-.009.25-.003.096-.005.212-.005.349v2.339c0 .133.002.245.005.334s.006.166.009.228c.002.063.006.13.013.201.012.167.038.283.08.349s.086.12.134.161c.054.042.124.067.211.076.086.009.177.014.273.014l.035.035.027.34-.018.009h-2.53l-.018-.009.027-.34.044-.035c.096 0 .186-.005.273-.014.086-.009.154-.034.201-.076.047-.041.091-.095.129-.161.039-.066.071-.182.095-.349 0-.041.001-.091.004-.147.003-.057.006-.126.009-.21.003-.083.005-.185.005-.304v-2.432c0-.143-.002-.265-.005-.367-.003-.101-.006-.187-.009-.259s-.008-.143-.014-.214c-.011-.156-.038-.269-.08-.34-.042-.072-.087-.128-.134-.17-.053-.042-.122-.068-.206-.076-.083-.009-.172-.014-.268-.014l-.044-.035-.027-.34.018-.009h2.53z" transform="translate(87.6597 49.013)"/>
<path d="m0 .133h1.171l-.572-1.583zm1.037-3.066 1.538 4.058c.054.15.102.275.143.376.042.102.076.188.103.259s.05.13.072.175c.02.045.04.085.057.12.072.149.145.264.22.345.074.08.148.139.224.178.074.039.15.062.227.068s.155.008.233.008l.044.036.027.339-.018.037c-.042 0-.104-.005-.187-.014-.084-.009-.17-.014-.26-.014h-2.101l-.018-.009.027-.339.035-.036c.156 0 .274-.019.354-.058.08-.038.121-.145.121-.317 0-.095-.017-.231-.05-.407-.032-.176-.108-.395-.227-.657l-.188-.43h-1.565l-.179.43c-.107.262-.188.485-.241.67-.054.185-.08.316-.08.394 0 .143.029.241.089.294.059.054.167.081.322.081l.045.036.026.339-.017.009h-1.932c-.089 0-.174.005-.255.014-.08.009-.142.014-.183.014l-.009-.037.018-.339.044-.036c.078 0 .155-.005.233-.018.078-.012.155-.038.233-.08.077-.042.153-.1.227-.174.075-.075.151-.172.228-.291.019-.036.045-.091.081-.165.035-.075.092-.207.17-.398.077-.191.185-.462.321-.814.138-.352.32-.819.546-1.403l.769-1.977.634-.267z" transform="translate(92.2187 45.9833)"/>
</g>
</svg>